<svg width="185" height="413" viewBox="0 0 185 413" fill="none" xmlns="http://www.w3.org/2000/svg">
<path d="M413 206.5C413 260.453 391.885 312.262 354.172 350.845C316.459 389.427 265.144 411.717 211.206 412.947C157.268 414.176 104.99 394.247 65.5588 357.423C26.1271 320.6 2.67307 269.806 0.214722 215.91C-2.24362 162.013 16.489 109.295 52.4046 69.0348C88.3202 28.7742 138.566 4.16878 192.393 0.482853C246.219 -3.20307 299.35 14.3233 340.419 49.3121C381.487 84.3009 407.231 133.973 412.143 187.701L364.481 192.059C360.708 150.783 340.93 112.623 309.38 85.7436C277.83 58.8641 237.013 45.3998 195.662 48.2315C154.311 51.0631 115.711 69.9658 88.1193 100.895C60.5278 131.825 46.1369 172.324 48.0255 213.729C49.914 255.134 67.9322 294.155 98.2247 322.444C128.517 350.733 168.678 366.043 210.115 365.099C251.552 364.154 290.974 347.03 319.946 317.39C348.918 287.75 365.14 247.948 365.14 206.5H413Z" fill="url(#paint0_linear_17_254)"/>
<defs>
<linearGradient id="paint0_linear_17_254" x1="119" y1="-22.4996" x2="248" y2="454" gradientUnits="userSpaceOnUse">
<stop stop-color="#FF5F3F"/>
<stop offset="1" stop-color="#F88F52" stop-opacity="0"/>
</linearGradient>
</defs>
</svg>
